<?xml version="1.0" standalone="no"?>
<!DOCTYPE svg PUBLIC "-//W3C//DTD SVG 20010904//EN"
 "http://www.w3.org/TR/2001/REC-SVG-20010904/DTD/svg10.dtd">
<svg version="1.0" xmlns="http://www.w3.org/2000/svg"
 width="512.000000pt" height="512.000000pt" viewBox="0 0 512.000000 512.000000"
 preserveAspectRatio="xMidYMid meet">

<g transform="translate(0.000000,512.000000) scale(0.100000,-0.100000)"
fill="#000000" stroke="none">
<path d="M2505 5095 c-25 -24 -25 -27 -25 -198 0 -161 2 -176 21 -201 16 -20
29 -26 59 -26 30 0 43 6 59 26 19 25 21 40 21 201 0 171 0 174 -25 198 -15 16
-36 25 -55 25 -19 0 -40 -9 -55 -25z"/>
<path d="M1716 4679 c-20 -16 -26 -29 -26 -58 0 -41 -10 -30 327 -333 31 -28
51 -38 76 -38 68 0 102 82 55 133 -43 45 -323 294 -345 305 -32 17 -57 15 -87
-9z"/>
<path d="M3315 4688 c-22 -13 -332 -291 -352 -316 -37 -46 4 -122 65 -122 35
0 26 -7 259 203 137 123 143 131 143 167 0 62 -62 98 -115 68z"/>
<path d="M745 4476 c-17 -7 -36 -20 -42 -28 -7 -8 -47 -105 -89 -214 -42 -109
-80 -203 -85 -208 -4 -5 -110 -15 -235 -21 l-227 -12 -33 -36 c-37 -40 -43
-76 -22 -122 6 -14 85 -84 174 -155 88 -72 167 -136 173 -144 10 -11 0 -57
-43 -218 -31 -112 -56 -218 -56 -237 0 -48 55 -101 105 -101 45 0 43 -1 247
132 91 59 171 108 176 108 6 0 93 -54 194 -120 162 -106 188 -120 226 -120 35
0 49 6 72 29 16 16 32 40 36 55 4 17 -13 98 -53 246 l-60 219 156 125 c86 68
169 138 185 154 53 56 33 148 -37 177 -20 8 -101 15 -212 19 -270 10 -246 1
-285 104 -104 276 -132 341 -153 355 -35 22 -79 28 -112 13z m110 -411 c32
-85 67 -161 81 -175 26 -27 91 -37 254 -41 159 -3 159 1 4 -123 -74 -60 -139
-117 -144 -127 -18 -32 -10 -81 34 -241 24 -87 42 -158 40 -158 -2 0 -69 43
-149 96 -116 77 -154 97 -183 98 -32 0 -63 -15 -187 -96 -82 -53 -150 -96
-152 -95 -1 2 18 76 43 167 24 90 44 172 44 182 0 39 -29 72 -158 174 -158
126 -162 118 60 127 162 7 198 18 221 65 8 15 38 91 67 170 29 78 57 139 61
135 4 -5 33 -75 64 -158z"/>
<path d="M2515 4476 c-43 -18 -51 -35 -136 -258 l-74 -197 -35 -5 c-19 -3
-116 -8 -215 -12 -99 -4 -191 -11 -205 -16 -37 -14 -68 -47 -75 -79 -14 -63 6
-87 190 -234 95 -77 174 -145 174 -151 1 -7 -24 -105 -55 -219 -62 -230 -64
-257 -13 -299 22 -19 42 -26 71 -26 36 0 66 16 225 120 101 66 188 120 194
120 6 0 93 -54 193 -120 158 -104 188 -120 224 -120 29 0 49 7 71 26 51 42 49
69 -13 299 -31 114 -56 212 -55 219 0 6 79 74 174 150 184 147 204 172 190
235 -7 32 -38 65 -75 79 -14 5 -106 13 -205 16 -99 4 -196 9 -215 12 l-35 5
-74 197 c-41 108 -82 208 -90 221 -15 23 -67 51 -93 51 -7 -1 -27 -7 -43 -14z
m94 -363 c70 -187 86 -220 119 -237 20 -10 82 -18 196 -24 92 -6 169 -12 172
-14 2 -3 -55 -52 -127 -109 -130 -103 -159 -136 -159 -181 0 -13 16 -82 35
-153 20 -72 40 -145 45 -163 6 -24 5 -30 -3 -25 -7 3 -74 47 -150 96 -182 118
-173 118 -354 0 -76 -50 -143 -93 -150 -97 -8 -4 -9 2 -3 26 5 18 25 91 45
163 19 71 35 140 35 153 0 45 -29 78 -159 181 -72 57 -129 106 -127 109 3 2
80 8 172 14 114 6 176 14 196 24 33 17 49 50 119 237 24 64 46 117 49 117 3 0
25 -53 49 -117z"/>
<path d="M4303 4483 c-46 -9 -69 -48 -147 -255 -93 -242 -51 -214 -329 -224
-211 -8 -241 -16 -270 -75 -19 -41 -15 -87 12 -116 10 -10 92 -78 182 -151
l165 -133 -59 -219 c-64 -238 -65 -253 -17 -301 23 -23 37 -29 72 -29 38 0 64
14 226 120 101 66 189 120 195 120 7 0 44 -21 82 -47 314 -211 346 -224 411
-159 25 25 34 43 34 67 0 19 -25 125 -55 237 -31 111 -53 207 -50 211 3 5 81
70 173 145 93 75 174 147 180 161 21 46 14 83 -22 122 l-33 37 -194 8 c-107 5
-212 12 -233 16 l-40 7 -80 209 c-84 217 -98 239 -156 249 -14 3 -35 3 -47 0z
m92 -408 c31 -82 61 -158 66 -167 20 -37 65 -48 217 -55 222 -9 218 -1 60
-127 -129 -102 -158 -135 -158 -174 0 -10 20 -92 44 -182 25 -91 44 -165 43
-167 -1 -1 -69 42 -151 95 -123 80 -156 96 -186 96 -28 -1 -69 -23 -184 -98
-81 -53 -148 -96 -150 -96 -2 0 16 71 40 158 49 175 53 218 25 253 -10 13 -75
69 -145 124 -144 114 -144 111 14 114 163 4 228 14 254 41 14 14 49 90 81 175
57 152 65 169 70 163 2 -2 29 -70 60 -153z"/>
<path d="M2400 2774 c-106 -28 -199 -82 -286 -169 -127 -127 -181 -243 -191
-416 -10 -160 31 -292 130 -426 26 -34 69 -79 96 -100 27 -21 50 -41 50 -44 1
-3 -18 -12 -41 -18 -77 -23 -237 -112 -326 -181 -85 -65 -145 -125 -208 -204
l-31 -39 -66 67 c-72 71 -179 146 -267 186 -30 13 -57 25 -59 27 -2 1 18 26
45 56 184 201 179 499 -13 690 -287 287 -775 128 -844 -276 -24 -145 27 -307
131 -418 27 -29 49 -53 47 -54 -1 0 -27 -12 -57 -25 -203 -89 -378 -270 -470
-486 -43 -100 -48 -203 -13 -270 27 -50 76 -99 128 -127 40 -22 47 -22 633
-25 l592 -3 0 -103 c0 -60 6 -122 14 -150 34 -112 127 -206 243 -245 61 -21
77 -21 920 -21 955 0 919 -2 1023 69 64 44 124 125 145 195 9 30 15 91 15 152
l0 103 593 3 c585 3 592 3 632 25 52 28 101 77 128 127 35 67 30 170 -13 270
-91 215 -275 405 -470 487 -30 12 -56 23 -57 24 -2 1 20 25 48 55 102 109 154
275 129 419 -68 402 -556 561 -843 274 -190 -190 -197 -489 -16 -687 28 -31
50 -58 48 -59 -2 -2 -29 -14 -59 -27 -88 -40 -195 -115 -267 -186 l-66 -67
-31 39 c-63 79 -123 139 -208 204 -89 69 -249 158 -325 181 -24 6 -43 15 -42
18 0 3 23 23 50 44 27 21 70 66 96 100 99 134 140 266 130 426 -10 173 -63
289 -191 417 -88 88 -178 140 -291 169 -74 19 -241 19 -315 -1z m333 -173
c125 -49 245 -174 283 -294 55 -178 11 -362 -119 -491 -190 -190 -484 -191
-673 -2 -104 104 -151 227 -141 371 3 46 14 105 27 138 48 128 171 244 303
287 85 28 236 23 320 -9z m-1694 -451 c69 -37 119 -89 153 -159 19 -38 23 -63
23 -141 0 -84 -3 -101 -28 -148 -36 -68 -94 -124 -165 -159 -80 -39 -191 -39
-273 -1 -79 36 -133 89 -171 166 -59 119 -40 263 48 361 81 91 156 123 274
118 63 -3 86 -9 139 -37z m3344 6 c73 -35 150 -119 173 -188 59 -170 -19 -349
-185 -426 -82 -38 -193 -38 -273 1 -198 97 -261 341 -130 512 37 49 119 107
177 125 57 18 178 6 238 -24z m-1556 -680 c191 -53 340 -142 479 -289 109
-115 175 -223 228 -377 40 -115 40 -115 44 -293 3 -150 1 -186 -13 -223 -19
-51 -83 -110 -134 -124 -48 -13 -1693 -13 -1741 0 -49 13 -109 66 -131 114
-29 63 -27 330 2 446 91 357 369 646 715 741 125 34 161 38 314 34 117 -3 163
-8 237 -29z m-1789 -142 c158 -32 353 -153 435 -271 l27 -39 -36 -82 c-20 -45
-45 -123 -57 -172 l-22 -90 -570 0 c-540 0 -572 1 -601 19 -39 23 -58 69 -50
116 10 53 90 203 139 264 80 96 207 187 317 227 123 44 286 55 418 28z m3397
-9 c140 -38 283 -130 378 -243 53 -63 132 -212 143 -267 8 -47 -11 -93 -50
-116 -29 -18 -61 -19 -601 -19 l-570 0 -22 89 c-11 49 -37 127 -57 172 l-36
83 27 39 c79 114 274 238 428 271 87 19 274 15 360 -9z"/>
</g>
</svg>
