<?xml version="1.0" standalone="no"?>
<!DOCTYPE svg PUBLIC "-//W3C//DTD SVG 20010904//EN"
 "http://www.w3.org/TR/2001/REC-SVG-20010904/DTD/svg10.dtd">
<svg version="1.0" xmlns="http://www.w3.org/2000/svg"
 width="256.000000pt" height="256.000000pt" viewBox="0 0 256.000000 256.000000"
 preserveAspectRatio="xMidYMid meet">

<g transform="translate(0.000000,256.000000) scale(0.100000,-0.100000)"
fill="#000000" stroke="none">
<path d="M891 2478 c-43 -46 -91 -97 -107 -115 -18 -20 -76 -52 -158 -90 -71
-32 -134 -67 -142 -78 -7 -11 -20 -83 -29 -160 l-16 -140 -70 -126 c-38 -70
-69 -137 -69 -150 0 -12 31 -79 69 -148 l69 -126 17 -140 c9 -77 21 -148 27
-158 5 -10 46 -36 91 -58 61 -30 81 -44 79 -57 -2 -9 -46 -165 -98 -347 -52
-181 -94 -344 -94 -361 0 -38 28 -65 66 -66 16 0 87 21 159 46 71 25 134 46
140 46 5 0 46 -46 90 -101 117 -148 151 -171 199 -134 21 16 33 51 107 312 30
106 56 193 59 193 3 0 29 -87 59 -193 74 -261 86 -296 107 -312 48 -37 82 -14
199 134 44 55 85 101 90 101 6 0 69 -21 140 -46 72 -25 143 -46 159 -46 38 1
66 28 66 66 0 17 -44 186 -99 376 l-99 345 84 42 c46 24 87 51 93 60 5 10 17
81 26 158 l17 140 69 126 c38 69 69 136 69 148 0 13 -31 80 -69 150 l-70 126
-17 144 c-12 94 -23 149 -33 162 -9 10 -74 45 -145 78 -128 59 -128 59 -223
163 -52 56 -102 107 -111 112 -10 6 -66 -1 -162 -19 l-146 -28 -141 26 c-77
15 -148 27 -158 27 -9 0 -52 -37 -94 -82z m276 -102 l111 -23 129 24 128 25
90 -96 c86 -91 95 -98 205 -150 l116 -53 15 -129 c16 -129 16 -130 78 -242
l63 -112 -62 -113 c-63 -111 -63 -113 -79 -241 l-15 -129 -116 -55 c-109 -51
-120 -59 -205 -150 l-91 -95 -127 23 -128 23 -126 -23 -126 -24 -91 96 c-87
92 -97 99 -206 151 l-116 54 -15 129 c-16 128 -16 130 -79 241 l-62 113 63
112 c62 112 62 113 78 241 l15 129 121 57 c115 55 124 62 203 149 46 51 91 92
100 92 10 -1 67 -11 129 -24z m-175 -1696 c15 0 59 7 99 15 40 9 74 13 76 11
5 -5 -114 -431 -126 -454 -5 -8 -30 16 -75 73 -40 51 -77 87 -92 91 -16 4 -60
-7 -125 -30 -55 -20 -102 -36 -103 -36 -3 0 127 464 140 500 4 11 31 -12 93
-77 67 -72 93 -93 113 -93z m854 -81 c39 -138 67 -248 60 -246 -152 55 -198
69 -220 63 -15 -4 -51 -39 -92 -91 -45 -57 -70 -81 -75 -73 -12 23 -131 449
-126 454 2 2 36 -2 76 -11 118 -25 115 -26 209 75 47 50 88 88 91 85 3 -4 38
-119 77 -256z"/>
<path d="M1163 2145 c-267 -58 -456 -332 -415 -602 40 -264 269 -463 532 -463
323 0 581 299 532 617 -48 309 -345 514 -649 448z m262 -166 c83 -31 183 -130
214 -213 75 -201 -8 -409 -199 -500 -59 -28 -74 -31 -160 -31 -86 0 -101 3
-160 31 -191 92 -274 299 -200 498 25 64 102 154 164 191 99 58 226 67 341 24z"/>
<path d="M1309 1703 l-79 -77 -30 29 c-54 52 -133 25 -133 -45 0 -25 12 -44
64 -95 99 -99 98 -99 241 43 106 104 121 124 121 152 0 40 -32 70 -75 70 -24
0 -46 -16 -109 -77z"/>
</g>
</svg>
