<?xml version="1.0" standalone="no"?>
<!DOCTYPE svg PUBLIC "-//W3C//DTD SVG 20010904//EN"
 "http://www.w3.org/TR/2001/REC-SVG-20010904/DTD/svg10.dtd">
<svg version="1.0" xmlns="http://www.w3.org/2000/svg"
 width="512.000000pt" height="512.000000pt" viewBox="0 0 512.000000 512.000000"
 preserveAspectRatio="xMidYMid meet">

<g transform="translate(0.000000,512.000000) scale(0.100000,-0.100000)"
fill="#000000" stroke="none">
<path d="M2320 5106 c-610 -71 -1151 -329 -1574 -752 -415 -415 -662 -935
-726 -1531 -18 -163 -8 -523 19 -678 93 -543 332 -1007 715 -1390 220 -219
419 -363 681 -490 183 -89 308 -136 483 -182 879 -227 1815 28 2452 667 397
399 646 898 725 1452 28 195 16 248 -54 248 -58 0 -71 -24 -86 -151 -30 -257
-76 -433 -177 -679 -168 -411 -497 -806 -893 -1071 -125 -84 -465 -254 -465
-233 0 3 126 157 280 342 340 408 343 413 350 590 l5 123 129 60 c143 65 191
103 234 184 22 42 26 63 27 131 0 71 -3 85 -28 122 -15 23 -46 54 -69 69 -35
24 -54 29 -122 31 l-81 4 -99 191 c-117 227 -152 278 -221 322 -95 61 -131 67
-442 63 -313 -3 -316 -4 -425 -87 -69 -52 -119 -61 -179 -33 -24 11 -123 70
-219 129 l-175 109 -3 137 -3 137 110 0 110 0 45 -58 c25 -33 55 -66 68 -74
54 -35 137 -27 179 18 12 13 93 156 180 316 l157 293 114 6 c195 10 211 27
218 243 l5 151 28 5 c44 8 93 54 104 98 14 56 5 96 -31 136 -40 45 -513 354
-631 412 -49 24 -121 51 -160 59 -71 15 -308 21 -340 9 -26 -10 -44 -62 -33
-94 13 -40 47 -50 167 -50 215 0 272 -23 630 -260 l243 -161 -43 -23 c-72 -38
-83 -68 -87 -233 l-4 -143 -110 0 c-167 0 -149 18 -348 -355 -68 -126 -132
-245 -142 -263 l-20 -33 -45 58 c-74 95 -82 98 -261 96 -129 -1 -157 -4 -184
-20 -56 -33 -70 -71 -76 -203 -6 -153 3 -241 31 -281 22 -32 357 -245 467
-298 106 -50 237 -30 328 50 64 57 78 59 350 59 282 0 315 -6 374 -68 21 -21
81 -124 143 -242 58 -113 117 -215 131 -227 31 -28 84 -43 157 -43 44 0 62 -5
77 -20 39 -39 17 -129 -41 -172 -19 -14 -85 -48 -147 -75 -63 -28 -125 -59
-138 -69 -38 -29 -53 -86 -54 -204 -1 -73 -6 -118 -18 -147 -10 -26 -156 -211
-377 -477 l-360 -433 -73 -17 c-120 -27 -112 -34 -112 103 l0 118 80 232 80
233 0 149 c0 225 -5 233 -225 314 -251 93 -257 102 -254 392 2 179 0 204 -19
256 -42 116 -131 221 -232 272 -26 13 -168 69 -316 125 -148 56 -274 107 -280
113 -7 7 -37 129 -68 272 -67 311 -76 338 -124 370 -36 24 -41 25 -228 25
l-190 0 -101 225 -100 224 40 88 c39 83 41 94 41 183 1 86 -2 101 -30 160 -18
39 -58 94 -98 137 l-66 71 78 71 c102 93 243 201 262 201 9 0 81 -28 160 -62
l145 -63 361 -3 c354 -3 361 -2 387 18 35 28 37 77 4 108 -23 22 -28 22 -365
22 l-341 0 -92 40 c-51 22 -94 42 -97 45 -8 8 295 149 393 183 259 89 451 123
736 129 256 6 406 -9 629 -63 251 -62 500 -166 708 -298 l91 -58 -1 -78 c0
-91 4 -114 42 -235 39 -126 44 -167 27 -264 -29 -160 9 -278 123 -391 94 -93
139 -112 424 -175 135 -30 256 -55 270 -55 21 0 27 -8 45 -62 45 -140 75 -283
96 -467 15 -128 28 -152 85 -153 71 -2 83 53 55 250 -38 271 -116 523 -235
767 -135 276 -272 468 -489 686 -405 404 -899 654 -1456 735 -144 21 -455 26
-595 10z m1938 -845 c160 -159 314 -362 415 -549 73 -135 107 -212 94 -212
-27 0 -406 89 -441 104 -53 22 -123 83 -152 131 -36 62 -44 123 -27 208 19 96
11 179 -32 318 -19 63 -35 125 -35 137 0 24 0 23 39 -7 21 -17 84 -76 139
-130z m-3425 -176 c99 -110 109 -179 48 -318 -65 -144 -67 -127 58 -407 60
-134 120 -257 133 -273 38 -47 84 -56 276 -57 94 0 172 -2 172 -4 0 -16 123
-557 131 -578 6 -14 21 -36 34 -48 12 -11 159 -73 326 -136 166 -63 317 -124
335 -135 47 -29 93 -85 122 -148 24 -53 25 -62 26 -271 l1 -215 29 -58 c54
-106 118 -150 329 -227 l117 -42 0 -128 0 -128 -77 -214 -76 -213 -5 -162 -4
-161 -106 -8 c-656 -44 -1347 216 -1826 690 -398 393 -640 890 -705 1451 -16
132 -13 425 4 562 51 387 193 757 411 1068 70 101 171 225 182 225 4 0 33 -29
65 -65z"/>
</g>
</svg>
