<?xml version="1.0" standalone="no"?>
<!DOCTYPE svg PUBLIC "-//W3C//DTD SVG 20010904//EN"
 "http://www.w3.org/TR/2001/REC-SVG-20010904/DTD/svg10.dtd">
<svg version="1.0" xmlns="http://www.w3.org/2000/svg"
 width="512.000000pt" height="512.000000pt" viewBox="0 0 512.000000 512.000000"
 preserveAspectRatio="xMidYMid meet">

<g transform="translate(0.000000,512.000000) scale(0.100000,-0.100000)"
fill="#000000" stroke="none">
<path d="M1285 5113 c-299 -39 -575 -248 -710 -536 -100 -212 -125 -484 -65
-703 11 -41 20 -76 20 -77 0 -2 -109 25 -242 59 -134 35 -246 63 -251 64 -4 0
-6 -772 -5 -1716 l3 -1717 867 -224 868 -224 792 205 791 204 851 -219 c468
-121 859 -222 869 -225 16 -5 17 81 17 1713 l0 1718 -869 224 -869 224 -567
-147 c-312 -81 -569 -145 -572 -142 -2 2 11 46 30 98 142 380 112 740 -84
1024 -136 197 -366 347 -599 390 -70 12 -207 16 -275 7z m247 -314 c29 -6 91
-29 138 -52 150 -73 268 -215 327 -392 23 -71 26 -96 26 -215 0 -118 -3 -146
-27 -225 -65 -215 -196 -468 -370 -710 -48 -68 -214 -275 -220 -275 -10 0
-198 246 -268 350 -249 370 -371 682 -355 904 22 300 210 540 477 610 66 18
199 20 272 5z m1693 -1311 c3 -24 21 -175 40 -337 19 -162 36 -295 38 -297 1
-2 135 -32 296 -68 161 -36 295 -66 297 -68 4 -4 -45 -340 -50 -345 -2 -2
-114 -26 -248 -52 l-244 -48 -345 -266 c-189 -147 -349 -265 -355 -263 -7 3
-80 62 -163 132 l-152 127 201 202 200 202 0 500 0 500 163 42 c89 23 191 50
227 60 90 26 88 26 95 -21z m-2705 -8 c99 -26 160 -47 168 -58 7 -9 45 -71 84
-137 79 -134 191 -295 304 -436 101 -128 313 -359 328 -359 13 0 177 172 284
298 78 91 221 282 277 368 l39 62 206 53 c113 29 211 54 218 57 9 3 12 -79 12
-390 l0 -393 -385 -392 c-348 -354 -388 -391 -408 -383 -12 5 -311 104 -664
220 l-643 211 0 660 c0 520 3 659 13 659 6 0 82 -18 167 -40z m3225 -15 c99
-26 196 -51 216 -56 l35 -9 -25 -179 c-14 -99 -29 -183 -33 -186 -6 -6 -346
61 -356 70 -2 2 -52 395 -52 413 0 2 8 1 18 -2 9 -3 98 -26 197 -51z m793
-205 c128 -33 234 -60 237 -60 3 0 5 -145 5 -323 l0 -323 -300 -59 c-165 -32
-302 -56 -305 -54 -6 7 118 879 126 879 3 0 110 -27 237 -60z m242 -1550 c0
-291 -3 -530 -7 -530 -4 0 -135 48 -292 106 l-286 106 -248 315 c-137 173
-247 317 -245 319 2 2 199 42 438 89 239 48 476 95 525 105 50 10 96 18 103
19 9 1 12 -111 12 -529z m-1077 -189 l306 -389 208 -76 c114 -43 288 -107 386
-143 l177 -65 0 -224 c0 -123 -3 -224 -6 -224 -3 0 -320 81 -703 180 -384 99
-707 180 -718 180 -11 0 -141 -32 -290 -70 -149 -39 -274 -70 -277 -70 -3 0
-5 185 -4 412 l3 412 300 233 c165 128 303 233 306 233 3 0 144 -175 312 -389z
m-2747 144 c1 -6 -69 -85 -155 -177 l-156 -167 -152 0 -153 -1 0 279 0 279
308 -102 c169 -55 307 -106 308 -111z m1350 -35 l174 -144 0 -473 0 -472 -42
-12 c-175 -47 -656 -169 -668 -169 -8 0 -333 82 -722 183 l-708 182 0 148 0
147 223 1 222 1 250 268 c138 148 255 269 260 269 6 0 111 -33 235 -73 l225
-74 179 185 c98 101 183 182 188 181 6 -2 88 -69 184 -148z"/>
<path d="M1220 4190 l0 -150 190 0 190 0 0 150 0 150 -190 0 -190 0 0 -150z"/>
</g>
</svg>
